# xmcd
#
# Track frame offsets:
#	150
#	11637
#	23127
#	32037
#	45595
#	57189
#	71864
#	82841
#	97096
#	104905
#	120927
#
# Disc length: 1841 seconds
# Revision: 0
# Processed by: cddbd v1.5.2PL0 Copyright (c) Steve Scherf et al.
# Submitted via: dBpowerAMP V12.0
#
DISCID=8c072f0b
DTITLE=Firewater Junction - Songs from the Holler
DYEAR=2017
DGENRE=Bluegrass
TTITLE0=Rocky Top
TTITLE1=Down the Road
TTITLE2=Amazing Grace
TTITLE3=Man of Constant Sorrrow
TTITLE4=Roving Gambler
TTITLE5=Footprints in the Snow
TTITLE6=Little Maggie
TTITLE7=I'll Remember You Love in My Prayers
TTITLE8=Louisville Breakdown
TTITLE9=Pretty Polly
TTITLE10=Ruby
EXTD=
EXTT0=
EXTT1=
EXTT2=
EXTT3=
EXTT4=
EXTT5=
EXTT6=
EXTT7=
EXTT8=
EXTT9=
EXTT10=
PLAYORDER=
